<svg xmlns="http://www.w3.org/2000/svg" viewBox="0 0 24 24"><rect width="24" height="24" rx="5" fill="#0052CC"/><path fill="#fff" d="M7.1 15.7c-.5.8-.3 1.9.5 2.4.8.5 1.9.3 2.4-.5l.9-1.4c.5-.8.3-1.9-.5-2.4-.8-.5-1.9-.3-2.4.5l-.9 1.4Zm9.8-7.4c.5-.8.3-1.9-.5-2.4-.8-.5-1.9-.3-2.4.5l-.9 1.4c-.5.8-.3 1.9.5 2.4.8.5 1.9.3 2.4-.5l.9-1.4Z"/><path fill="#79AFFF" d="M8.3 12.7c1.3-2.1 2.2-3.2 4-3.2h3.6c1 0 1.8.8 1.8 1.8s-.8 1.8-1.8 1.8h-3.2c-.6 0-.9.2-1.3.8l-.5.8c-.5.8-1.6 1.1-2.4.5-.8-.5-1.1-1.6-.5-2.4l.3-.1Z"/></svg>